<svg xmlns="http://www.w3.org/2000/svg" xmlns:xlink="http://www.w3.org/1999/xlink" width="105" height="106" xmlns:v="https://vecta.io/nano"><defs><circle id="A" cx="49.75" cy="52.354" r="30.439"/><filter x="-35.3%" y="-33.7%" width="170.6%" height="170.6%" id="B"><feOffset dy="1" in="SourceAlpha"/><feGaussianBlur stdDeviation="7"/><feColorMatrix values="0 0 0 0 0.89509682 0 0 0 0 0.903457821 0 0 0 0 0.961984828 0 0 0 1 0"/></filter></defs><g fill="none" fill-rule="evenodd"><circle fill="#f8eeec" cx="49.362" cy="52.211" r="42.269"/><use fill="#000" filter="url(#B)" xlink:href="#A"/><use fill="#fff" xlink:href="#A"/><g stroke-linecap="round" stroke-width="4"><path d="M41.487 10.863C22.372 14.798 8 31.72 8 52c0 14.292 7.14 26.917 18.045 34.503" stroke="#e5121b"/><path d="M69.164 14.617A41.82 41.82 0 0 0 50 10l-2.603.08" stroke="#fd4501"/><path d="M87.592 33.25c-3.167-6.337-7.89-11.76-13.667-15.773" stroke="#ffaf00"/><path d="M90.907 61.56C91.622 58.49 92 55.29 92 52a41.97 41.97 0 0 0-2.019-12.901" stroke="#52da1f"/><path d="M73.93 86.52c6.692-4.648 11.97-11.19 15.05-18.854" stroke="#08a42a"/></g><path d="M88.248 49.633l-38.332-.91c-3.05.32-4.298 2.745-4.06 5.013s1.964 4.38 5.013 4.06c1.95-.205 14.43-2.685 37.44-7.44h0c.197-.04.324-.234.284-.43-.034-.165-.177-.285-.345-.29z" fill="#26292d"/><circle fill="#fff" cx="50.328" cy="53.388" r="2.281"/><g fill-rule="nonzero"><path d="M58.537 105.088v-.99h-2.87v-2.24h2.7v-.977h-2.7v-1.943h2.87v-.986H54.5v7.14h4.038zm2.02 0l1.328-2.02 1.333 2.02h1.3l-1.91-2.76 1.816-2.642h-1.3l-1.24 1.9-1.23-1.9h-1.31l1.812 2.642-1.9 2.76h1.3zm7.085.098a3.94 3.94 0 0 0 .847-.078c.233-.052.452-.138.657-.26h0v-1c-.456.254-.94.38-1.45.38-.45 0-.8-.152-1.023-.457s-.35-.76-.35-1.365c0-1.24.467-1.86 1.4-1.86.316 0 .716.094 1.2.283h0l.347-.923a3.61 3.61 0 0 0-1.538-.317c-.84 0-1.482.244-1.926.732s-.667 1.187-.667 2.095c0 .892.212 1.576.637 2.053s1.046.715 1.863.715zm5.132 0a5.21 5.21 0 0 0 .981-.083c.286-.055.57-.15.85-.283h0v-.933a4.67 4.67 0 0 1-.886.3c-.275.06-.572.1-.89.1-.485 0-.86-.14-1.128-.422s-.41-.684-.425-1.208h3.6v-.62c0-.758-.207-1.354-.62-1.787s-.977-.65-1.69-.65c-.768 0-1.372.252-1.812.757s-.66 1.198-.66 2.08c0 .86.237 1.534.7 2.024s1.13.735 1.97.735zm.972-3.37h-2.45c.042-.443.173-.78.393-1.01s.512-.347.876-.347.65.115.86.344.316.567.322 1.013h0zm3.58 3.27V97.49h-1.147v7.598h1.147zm2.788 0V97.49h-1.147v7.598h1.147zm4 .098a5.21 5.21 0 0 0 .981-.083c.286-.055.57-.15.85-.283h0v-.933a4.67 4.67 0 0 1-.886.3c-.275.06-.572.1-.89.1-.485 0-.86-.14-1.128-.422s-.41-.684-.425-1.208h3.6v-.62c0-.758-.207-1.354-.62-1.787s-.977-.65-1.69-.65c-.768 0-1.372.252-1.812.757s-.66 1.198-.66 2.08c0 .86.237 1.534.7 2.024s1.13.735 1.97.735zm.972-3.37h-2.45c.042-.443.173-.78.393-1.01s.512-.347.876-.347.65.115.86.344.316.567.322 1.013h0zm3.58 3.27v-2.7c0-.674.112-1.154.337-1.44s.58-.43 1.064-.43c.365 0 .63.103.798.308s.25.516.25.933h0v3.32h1.152v-3.52c0-1.318-.648-1.978-1.943-1.978-.365 0-.697.07-.996.2s-.53.34-.693.596h0-.06l-.16-.708h-.898v5.4h1.147zm6.938.098a3.38 3.38 0 0 0 .623-.056c.2-.037.364-.084.49-.14h0v-.864a2.79 2.79 0 0 1-.84.132c-.225 0-.406-.066-.544-.198s-.208-.336-.208-.613h0v-2.89h1.538v-.87h-1.538v-1.2h-.708l-.39 1.143-.79.42v.508h.737v2.9c0 1.146.544 1.72 1.63 1.72z" fill="#08a42a"/><path d="M12.333 105.088v-1H9.31V97.95H8.144v7.14h4.19zm3.33.098c.807 0 1.437-.247 1.9-.742s.68-1.183.68-2.065c0-.853-.228-1.53-.684-2.034s-1.074-.754-1.855-.754c-.817 0-1.45.246-1.9.737s-.674 1.175-.674 2.05c0 .563.104 1.058.313 1.484s.506.754.894.98.833.342 1.338.342zm.02-.937c-.92 0-1.382-.623-1.382-1.87 0-.596.108-1.053.325-1.372s.566-.48 1.047-.48c.918 0 1.377.617 1.377 1.85 0 1.247-.456 1.87-1.367 1.87zm5.928.84l.718-2.5c.11-.368.26-.99.45-1.87h.044l.46 1.86.698 2.52h1.29l1.523-5.4H25.64l-.698 2.66-.342 1.68h-.04c-.013-.182-.056-.438-.13-.767l-.183-.732-.796-2.842h-1.26l-.82 2.842c-.05.153-.107.383-.173.69l-.15.818h-.03a18.5 18.5 0 0 0-.332-1.689h0L20 99.688h-1.172l1.514 5.4h1.27z" fill="#e5121b"/></g></g></svg>