<?xml version="1.0" encoding="UTF-8"?>
<svg width="1158px" height="190px" viewBox="0 0 1158 190" version="1.1" xmlns="http://www.w3.org/2000/svg" xmlns:xlink="http://www.w3.org/1999/xlink">
    <title>Paisabazaar new Logo@1x</title>
    <g id="Page-1" stroke="none" stroke-width="1" fill="none" fill-rule="evenodd">
        <g id="Artboard" transform="translate(-57.000000, -181.000000)">
            <g id="Paisabazaar-new-Logo" transform="translate(57.155800, 181.541000)">
                <path d="M463.1624,62.3632 C467.4884,59.8312 472.1494,58.5662 477.1504,58.5662 C484.6224,58.5662 490.2144,62.0062 493.9234,68.8862 C497.6314,75.7682 499.4854,86.0892 499.4854,99.8522 C499.4854,112.8402 497.5744,122.5792 493.7544,129.0742 C489.9344,135.5672 484.1744,138.8152 476.4774,138.8152 C472.4324,138.8152 468.3024,137.9512 464.0894,136.2232 C459.8734,134.4962 455.5474,131.9052 451.1094,128.4492 L451.1094,73.7572 C454.8164,68.6942 458.8334,64.8962 463.1624,62.3632 L463.1624,62.3632 Z M418.9714,5.4522 L418.9714,10.9872 L420.5694,11.0762 C427.3554,11.5532 431.3804,12.5792 432.6424,14.1562 C433.9044,15.7332 434.5354,20.5382 434.5354,28.5722 L434.5354,147.4732 L447.9964,147.4732 L450.0994,135.4232 L451.1094,135.4232 C454.9214,139.8272 459.1294,143.1302 463.7304,145.3302 C468.3284,147.5322 473.2924,148.6342 478.6204,148.6342 C490.2314,148.6342 499.5404,143.7512 506.5524,133.9822 C513.5634,124.2152 517.0684,111.2292 517.0684,95.0272 C517.0684,80.4352 514.0114,68.8202 507.8984,60.1832 C501.7844,51.5472 493.5674,47.2282 483.2484,47.2282 C476.6854,47.2282 470.7244,48.9262 465.3694,52.3192 C460.0134,55.7152 455.2604,60.8052 451.1094,67.5922 L451.1094,5.4522 L418.9714,5.4522 Z" id="Fill-1" fill="#000000"></path>
                <path d="M574.22,131.2437 C567.679,135.9457 562.004,138.2967 557.195,138.2967 C552.108,138.2967 547.859,136.4437 544.449,132.7387 C541.038,129.0347 539.333,124.3727 539.333,118.7557 C539.333,111.2277 542.073,105.3117 547.551,101.0087 C553.03,96.7077 560.634,94.5557 570.362,94.5557 L574.22,94.5557 L574.22,131.2437 Z M570.781,89.1107 C552.499,89.1107 539.529,92.3897 531.87,98.9447 C525.162,104.6667 521.807,112.1167 521.807,121.2947 C521.807,129.1607 524.38,135.7027 529.527,140.9187 C534.674,146.1327 541.109,148.7387 548.829,148.7387 C558.451,148.7387 568.188,143.5777 578.036,133.2517 C580.208,143.5777 585.366,148.7387 593.506,148.7387 C596.637,148.7387 600.189,147.9947 604.157,146.5057 L603.654,139.8897 C601.81,140.4337 600.328,140.7057 599.21,140.7057 C596.079,140.7057 593.884,139.1287 592.627,135.9707 C591.368,132.8137 590.74,127.3627 590.74,119.6197 L590.74,76.3737 C590.74,57.0137 580.844,47.3347 561.053,47.3347 C551.101,47.3347 540.311,50.0427 528.684,55.4577 L528.684,73.2217 L539.921,73.2217 L540.004,71.5247 C540.62,65.2767 542.073,61.1407 544.365,59.1167 C548.278,55.7847 552.779,54.1187 557.867,54.1187 C568.769,54.1187 574.22,61.7657 574.22,77.0597 L574.22,89.1107 L570.781,89.1107 Z" id="Fill-3" fill="#000000"></path>
                <path d="M617.9518,146.4965 L697.5158,146.4965 L697.5158,139.9185 L671.7318,139.8755 L638.0468,139.8755 L695.7368,54.7745 L695.7368,49.3165 L620.3268,49.3165 L620.3268,70.5235 L629.2338,70.5235 L629.3198,68.6445 C629.4318,66.8555 629.4878,64.7075 629.4878,62.2025 C629.4878,58.5035 630.1948,56.3415 631.6088,55.7145 C633.0228,55.0885 637.8868,54.7745 646.1988,54.7745 L676.2678,54.7745 L617.9518,140.9485 L617.9518,146.4965 Z" id="Fill-5" fill="#000000"></path>
                <path d="M757.2629,131.2437 C750.7109,135.9457 745.0269,138.2967 740.2109,138.2967 C735.1149,138.2967 730.8579,136.4437 727.4419,132.7387 C724.0259,129.0347 722.3179,124.3727 722.3179,118.7557 C722.3179,111.2277 725.0629,105.3117 730.5509,101.0087 C736.0379,96.7077 743.6559,94.5557 753.3989,94.5557 L757.2629,94.5557 L757.2629,131.2437 Z M753.8189,89.1107 C735.5059,89.1107 722.5139,92.3897 714.8419,98.9447 C708.1209,104.6667 704.7609,112.1167 704.7609,121.2947 C704.7609,129.1607 707.3399,135.7027 712.4959,140.9187 C717.6509,146.1327 724.0959,148.7387 731.8309,148.7387 C741.4679,148.7387 751.2209,143.5777 761.0839,133.2517 C763.2609,143.5777 768.4279,148.7387 776.5829,148.7387 C779.7189,148.7387 783.2749,147.9947 787.2519,146.5057 L786.7479,139.8897 C784.8999,140.4337 783.4149,140.7057 782.2959,140.7057 C779.1589,140.7057 776.9619,139.1287 775.6999,135.9707 C774.4419,132.8137 773.8109,127.3627 773.8109,119.6197 L773.8109,76.3737 C773.8109,57.0137 763.8989,47.3347 744.0759,47.3347 C734.1059,47.3347 723.2969,50.0427 711.6509,55.4577 L711.6509,73.2217 L722.9069,73.2217 L722.9899,71.5247 C723.6059,65.2767 725.0629,61.1407 727.3579,59.1167 C731.2779,55.7847 735.7859,54.1187 740.8819,54.1187 C751.8029,54.1187 757.2629,61.7657 757.2629,77.0597 L757.2629,89.1107 L753.8189,89.1107 Z" id="Fill-7" fill="#000000"></path>
                <path d="M850.6732,131.2437 C844.1312,135.9457 838.4562,138.2967 833.6482,138.2967 C828.5612,138.2967 824.3122,136.4437 820.9032,132.7387 C817.4912,129.0347 815.7862,124.3727 815.7862,118.7557 C815.7862,111.2277 818.5252,105.3117 824.0042,101.0087 C829.4822,96.7077 837.0862,94.5557 846.8142,94.5557 L850.6732,94.5557 L850.6732,131.2437 Z M847.2342,89.1107 C828.9512,89.1107 815.9822,92.3897 808.3222,98.9447 C801.6152,104.6667 798.2602,112.1167 798.2602,121.2947 C798.2602,129.1607 800.8332,135.7027 805.9792,140.9187 C811.1272,146.1327 817.5622,148.7387 825.2832,148.7387 C834.9042,148.7387 844.6402,143.5777 854.4882,133.2517 C856.6612,143.5777 861.8192,148.7387 869.9592,148.7387 C873.0902,148.7387 876.6412,147.9947 880.6102,146.5057 L880.1072,139.8897 C878.2622,140.4337 876.7802,140.7057 875.6632,140.7057 C872.5302,140.7057 870.3372,139.1287 869.0802,135.9707 C867.8212,132.8137 867.1922,127.3627 867.1922,119.6197 L867.1922,76.3737 C867.1922,57.0137 857.2962,47.3347 837.5062,47.3347 C827.5532,47.3347 816.7642,50.0427 805.1362,55.4577 L805.1362,73.2217 L816.3742,73.2217 L816.4562,71.5247 C817.0732,65.2767 818.5252,61.1407 820.8172,59.1167 C824.7312,55.7847 829.2312,54.1187 834.3202,54.1187 C845.2222,54.1187 850.6732,61.7657 850.6732,77.0597 L850.6732,89.1107 L847.2342,89.1107 Z" id="Fill-9" fill="#000000"></path>
                <path d="M900.0236,137.9375 C898.7676,139.5225 894.7626,140.5535 888.0086,141.0315 L886.4166,141.1215 L886.4166,146.6805 L935.9926,146.6805 L935.9926,141.1215 L932.3906,141.0315 C925.6916,140.6135 921.6846,139.5965 920.3736,137.9835 C919.0626,136.3695 918.4056,131.5255 918.4056,123.4555 L918.4056,75.8385 C923.7096,66.3325 930.4916,61.5805 938.7556,61.5805 C940.8206,61.5805 942.0906,62.1035 942.5656,63.1485 C943.0396,64.1965 943.5836,67.4985 944.1986,73.0575 L944.2826,74.6725 L953.5786,74.6725 L953.5786,48.0385 C951.5126,47.3815 949.6426,47.0525 947.9676,47.0525 C935.7956,47.0525 925.9436,53.8985 918.4056,67.5875 L918.4056,49.2935 L886.4166,49.2935 L886.4166,54.8545 L888.0086,54.9425 C894.7626,55.4825 898.7676,56.5285 900.0236,58.0825 C901.2796,59.6375 901.9076,64.4495 901.9076,72.5205 L901.9076,123.4555 C901.9076,131.5255 901.2796,136.3545 900.0236,137.9375" id="Fill-11" fill="#000000"></path>
                <path d="M43.525,62.4505 C47.623,59.9145 52.039,58.6455 56.775,58.6455 C63.852,58.6455 69.145,62.0925 72.658,68.9865 C76.169,75.8815 77.925,86.2225 77.925,100.0125 C77.925,113.0245 76.115,122.7835 72.499,129.2905 C68.88,135.7965 63.427,139.0505 56.137,139.0505 C52.305,139.0505 48.394,138.1855 44.404,136.4535 C40.413,134.7225 36.315,132.1275 32.112,128.6645 L32.112,73.8665 C35.624,68.7935 39.428,64.9875 43.525,62.4505 L43.525,62.4505 Z M5.68434189e-14,49.5225 L5.68434189e-14,55.0665 L1.597,55.1575 C8.377,55.6945 12.399,56.7375 13.66,58.2865 C14.92,59.8375 15.552,64.6375 15.552,72.6865 L15.188,181.9805 L32.048,181.9805 L32.112,135.6475 C35.776,140.0605 39.817,143.3705 44.238,145.5775 C48.657,147.7845 53.429,148.8885 58.548,148.8885 C69.705,148.8885 78.65,143.9965 85.389,134.2085 C92.126,124.4215 95.495,111.4115 95.495,95.1785 C95.495,80.5575 92.557,68.9195 86.683,60.2655 C80.807,51.6135 72.911,47.2865 62.995,47.2865 C56.688,47.2865 50.961,48.9865 45.816,52.3875 C40.668,55.7875 36.099,60.8875 32.112,67.6885 L32.112,49.5225 L5.68434189e-14,49.5225 Z" id="Fill-13" fill="#0066FF"></path>
                <path d="M158.4253,131.2437 C151.8853,135.9457 146.2103,138.2967 141.4023,138.2967 C136.3143,138.2967 132.0653,136.4437 128.6553,132.7387 C125.2443,129.0347 123.5393,124.3727 123.5393,118.7557 C123.5393,111.2277 126.2793,105.3117 131.7573,101.0087 C137.2363,96.7077 144.8413,94.5557 154.5673,94.5557 L158.4253,94.5557 L158.4253,131.2437 Z M154.9873,89.1107 C136.7063,89.1107 123.7353,92.3897 116.0763,98.9447 C109.3683,104.6667 106.0123,112.1167 106.0123,121.2947 C106.0123,129.1607 108.5873,135.7027 113.7333,140.9187 C118.8813,146.1327 125.3153,148.7387 133.0353,148.7387 C142.6583,148.7387 152.3943,143.5777 162.2413,133.2517 C164.4143,143.5777 169.5713,148.7387 177.7133,148.7387 C180.8433,148.7387 184.3943,147.9947 188.3643,146.5057 L187.8603,139.8897 C186.0153,140.4337 184.5343,140.7057 183.4163,140.7057 C180.2853,140.7057 178.0913,139.1287 176.8323,135.9707 C175.5743,132.8137 174.9453,127.3627 174.9453,119.6197 L174.9453,76.3737 C174.9453,57.0137 165.0503,47.3347 145.2603,47.3347 C135.3083,47.3347 124.5173,50.0427 112.8903,55.4577 L112.8903,73.2217 L124.1273,73.2217 L124.2103,71.5247 C124.8253,65.2767 126.2793,61.1407 128.5713,59.1167 C132.4843,55.7847 136.9843,54.1187 142.0723,54.1187 C152.9743,54.1187 158.4253,61.7657 158.4253,77.0597 L158.4253,89.1107 L154.9873,89.1107 Z" id="Fill-15" fill="#0066FF"></path>
                <path d="M194.4486,54.9414 L196.0516,55.0314 C202.8566,55.5674 205.8506,56.4234 207.4886,58.4784 C210.0846,61.7374 210.0576,64.5134 210.0576,72.5634 L209.5896,146.5414 L227.1476,146.5414 L226.5666,49.3954 L194.4486,49.3954 L194.4486,54.9414 Z" id="Fill-17" fill="#0066FF"></path>
                <polygon id="Fill-19" fill="#0066FF" points="210.0572 31.772 226.6792 31.772 226.6792 14.15 210.0572 14.15"></polygon>
                <path d="M293.7388,137.9358 C290.3168,141.1918 285.9288,142.8178 280.5718,142.8178 C273.9668,142.8178 267.9038,141.2098 262.6298,137.6228 C254.6438,132.1898 246.1168,117.5098 246.1168,117.5098 L246.1168,132.1148 C254.2018,143.4768 267.5398,148.2628 279.1438,148.2628 C290.1528,148.2628 299.0948,145.5388 305.9688,140.0878 C312.8418,134.6388 316.2798,127.5948 316.2798,118.9588 C316.2798,112.7048 314.5228,107.5828 311.0118,103.5908 C307.4418,99.6608 301.1618,95.8488 292.1778,92.1558 L283.9648,88.7598 C275.6328,85.3728 270.0978,82.4008 267.3608,79.8448 C264.5638,77.3498 263.1658,74.0218 263.1658,69.8628 C263.1658,64.8128 264.8758,60.6228 268.2988,57.2948 C271.7198,53.9658 276.0198,52.3028 281.1978,52.3028 C286.6718,52.3028 291.3438,53.8198 295.2118,56.8548 C296.5218,57.9268 297.4728,59.5778 298.0688,61.8098 C298.6628,64.0408 299.1398,68.0728 299.4958,73.9048 L299.4958,75.5118 L309.4058,75.5118 L309.4058,52.3918 C299.2878,48.7028 289.4988,46.8568 280.0368,46.8568 C270.3368,46.8568 262.3468,49.4188 256.0688,54.5408 C249.7898,59.6638 246.6518,66.1568 246.6518,74.0178 C246.6518,80.6898 248.8238,86.3488 253.1678,90.9938 C257.5118,95.6998 264.5338,99.9288 274.2348,103.6798 L283.2508,107.1648 C289.0818,109.4348 293.1588,111.8828 295.4798,114.5108 C297.7408,117.1988 298.8718,120.8108 298.8718,125.3488 C298.8718,130.4858 297.1618,134.6798 293.7388,137.9358" id="Fill-21" fill="#0066FF"></path>
                <path d="M381.3718,131.2437 C374.8308,135.9457 369.1558,138.2967 364.3478,138.2967 C359.2598,138.2967 355.0108,136.4437 351.6008,132.7387 C348.1908,129.0347 346.4858,124.3727 346.4858,118.7557 C346.4858,111.2277 349.2248,105.3117 354.7038,101.0087 C360.1818,96.7077 367.7858,94.5557 377.5128,94.5557 L381.3718,94.5557 L381.3718,131.2437 Z M377.9328,89.1107 C359.6518,89.1107 346.6818,92.3897 339.0228,98.9447 C332.3128,104.6667 328.9588,112.1167 328.9588,121.2947 C328.9588,129.1607 331.5328,135.7027 336.6788,140.9187 C341.8268,146.1327 348.2608,148.7387 355.9808,148.7387 C365.6048,148.7387 375.3408,143.5777 385.1878,133.2517 C387.3608,143.5777 392.5178,148.7387 400.6588,148.7387 C403.7898,148.7387 407.3388,147.9947 411.3098,146.5057 L410.8058,139.8897 C408.9608,140.4337 407.4798,140.7057 406.3618,140.7057 C403.2298,140.7057 401.0358,139.1287 399.7788,135.9707 C398.5208,132.8137 397.8918,127.3627 397.8918,119.6197 L397.8918,76.3737 C397.8918,57.0137 387.9968,47.3347 368.2058,47.3347 C358.2538,47.3347 347.4628,50.0427 335.8358,55.4577 L335.8358,73.2217 L347.0728,73.2217 L347.1548,71.5247 C347.7718,65.2767 349.2248,61.1407 351.5178,59.1167 C355.4298,55.7847 359.9308,54.1187 365.0178,54.1187 C375.9198,54.1187 381.3718,61.7657 381.3718,77.0597 L381.3718,89.1107 L377.9328,89.1107 Z" id="Fill-22" fill="#0066FF"></path>
                <path d="M1157.6888,94.459 C1157.6888,146.628 1115.1208,188.918 1062.6108,188.918 C1010.1008,188.918 967.5328,146.628 967.5328,94.459 C967.5328,42.29 1010.1008,0 1062.6108,0 C1115.1208,0 1157.6888,42.29 1157.6888,94.459" id="Fill-23" fill="#0066FF"></path>
                <path d="M1030.703,113.9211 L1036.384,112.1591 C1037.491,116.1231 1037.319,119.7031 1035.864,122.8991 C1034.409,126.0961 1031.925,128.4991 1028.411,130.1101 C1024.009,132.1291 1019.811,132.3121 1015.816,130.6611 C1011.821,129.0101 1008.593,125.5001 1006.13,120.1281 C1004.538,116.6551 1003.72,113.3521 1003.677,110.2201 C1003.633,107.0871 1004.489,104.3301 1006.245,101.9501 C1008,99.5681 1010.26,97.7441 1013.028,96.4751 C1016.521,94.8741 1019.783,94.4471 1022.814,95.1951 C1025.845,95.9441 1028.419,97.8001 1030.536,100.7641 L1025.61,104.0121 C1024.115,102.0841 1022.476,100.8681 1020.694,100.3651 C1018.911,99.8621 1017.112,100.0281 1015.295,100.8611 C1012.548,102.1201 1010.768,104.1271 1009.955,106.8831 C1009.141,109.6391 1009.711,113.1471 1011.664,117.4081 C1013.645,121.7291 1015.913,124.4901 1018.467,125.6891 C1021.02,126.8891 1023.63,126.8771 1026.296,125.6551 C1028.436,124.6741 1029.922,123.1991 1030.754,121.2281 C1031.586,119.2591 1031.569,116.8231 1030.703,113.9211" id="Fill-24" fill="#FFFFFF"></path>
                <path d="M1042.3307,103.3846 C1044.2197,107.5036 1046.5317,110.1766 1049.2687,111.4026 C1052.0057,112.6276 1054.7377,112.6156 1057.4637,111.3656 C1060.1687,110.1256 1061.9477,108.0636 1062.8007,105.1796 C1063.6537,102.2956 1063.1127,98.7446 1061.1787,94.5236 C1059.3547,90.5456 1057.0687,87.9466 1054.3217,86.7256 C1051.5747,85.5046 1048.8587,85.5096 1046.1727,86.7406 C1043.4467,87.9906 1041.6527,90.0476 1040.7907,92.9106 C1039.9287,95.7746 1040.4417,99.2646 1042.3307,103.3846 M1036.7267,105.9536 C1033.9957,99.9976 1033.6287,94.8256 1035.6257,90.4396 C1037.2997,86.7896 1040.1257,84.0516 1044.1037,82.2276 C1048.5257,80.1996 1052.8047,79.9916 1056.9407,81.6026 C1061.0757,83.2136 1064.3147,86.5736 1066.6567,91.6816 C1068.5547,95.8216 1069.4257,99.3626 1069.2727,102.3036 C1069.1177,105.2466 1068.1557,107.9176 1066.3847,110.3176 C1064.6137,112.7176 1062.3247,114.5616 1059.5187,115.8486 C1055.0147,117.9126 1050.7137,118.1386 1046.6137,116.5236 C1042.5127,114.9086 1039.2177,111.3856 1036.7267,105.9536" id="Fill-25" fill="#FFFFFF"></path>
                <path d="M1080.6298,105.2894 L1065.8818,73.1224 L1070.7588,70.8874 L1072.8278,75.3994 C1073.1148,73.3624 1073.8768,71.4794 1075.1138,69.7514 C1076.3498,68.0244 1078.0378,66.6694 1080.1788,65.6884 C1082.5608,64.5964 1084.7408,64.1954 1086.7198,64.4854 C1088.6978,64.7764 1090.4068,65.6664 1091.8478,67.1564 C1092.6708,62.2334 1095.1208,58.8374 1099.1998,56.9674 C1102.3898,55.5044 1105.2488,55.2634 1107.7758,56.2434 C1110.3018,57.2234 1112.4078,59.5504 1114.0928,63.2264 L1124.2158,85.3064 L1118.7938,87.7924 L1109.5038,67.5284 C1108.5038,65.3484 1107.6068,63.8584 1106.8148,63.0614 C1106.0218,62.2644 1105.0258,61.7864 1103.8288,61.6264 C1102.6308,61.4664 1101.4068,61.6734 1100.1548,62.2474 C1097.8928,63.2844 1096.3598,64.8984 1095.5558,67.0874 C1094.7508,69.2774 1095.1078,72.0274 1096.6258,75.3384 L1105.1948,94.0274 L1099.7418,96.5274 L1090.1608,75.6274 C1089.0488,73.2044 1087.7718,71.5904 1086.3278,70.7864 C1084.8838,69.9824 1083.1518,70.0434 1081.1338,70.9684 C1079.5978,71.6724 1078.3648,72.7264 1077.4328,74.1314 C1076.5008,75.5364 1076.0988,77.1504 1076.2258,78.9734 C1076.3528,80.7974 1077.0878,83.1734 1078.4298,86.1004 L1086.0818,102.7904 L1080.6298,105.2894 Z" id="Fill-26" fill="#FFFFFF"></path>
            </g>
        </g>
    </g>
</svg>